<?xml version="1.0" encoding="utf-8"?>
<!-- Generator: Adobe Illustrator 18.1.0, SVG Export Plug-In . SVG Version: 6.00 Build 0)  -->
<svg version="1.1" id="Layer_1" xmlns="http://www.w3.org/2000/svg" xmlns:xlink="http://www.w3.org/1999/xlink" x="0px" y="0px"
	 viewBox="0 0 1128.05 275.42" enable-background="new 0 0 1128.05 275.42" xml:space="preserve">
<g>
	<g>
		<path d="M24.37,152.73l2.19,3.28c-6.57,4.82-9.42,12.48-9.42,20.59c0,19.27,16.64,35.92,37.67,35.92
			c17.74,0,34.6-11.83,34.6-31.32c0-18.4-15.33-29.13-33.07-41.39c-16.21-11.17-32.19-22.34-32.19-43.36
			c0-27.59,27.59-45.11,52.56-45.11c17.52,0,37.23,8.76,37.23,27.16c0,10.29-5.91,17.96-14.45,22.12l-2.63-2.85
			c3.07-2.63,4.6-6.35,4.6-11.61c0-14.89-13.36-26.06-30.44-26.06c-15.33,0-31.32,9.2-31.32,26.72c0,17.08,14.67,28.03,30.66,39.2
			c16.21,11.17,33.51,22.78,33.51,45.99c0,29.35-27.59,50.15-55.41,50.15c-22.34,0-44.24-13.36-44.24-37.01
			C4.22,171.57,11.67,158.21,24.37,152.73z"/>
		<path d="M114.82,186.68c0-17.3,7.01-33.29,16.21-43.58c8.98-10.29,21.68-16.64,35.92-16.64c8.98,0,17.08,2.41,25.18,7.01
			c-2.85,15.11-6.35,37.23-6.35,53c0,14.67,3.07,26.28,10.07,26.28c8.1,0,18.61-15.99,26.5-60.88l5.26,0.66
			c-9.42,54.53-22.78,68.98-36.13,68.98c-15.11,0-22.56-18.4-22.12-37.01h-0.44c-7.88,24.96-17.96,36.79-30.22,36.79
			C125.99,221.28,114.82,208.58,114.82,186.68z M162.56,185.36c4.82-14.02,8.76-31.32,11.61-45.11c-4.38-3.07-9.85-4.6-15.11-4.6
			c-6.35,0-12.48,2.19-17.3,6.79c-5.69,9.64-9.85,25.62-9.85,40.73c0,15.77,4.6,28.69,12.04,28.69
			C149.86,211.86,156.21,203.98,162.56,185.36z"/>
		<path d="M217.53,194.56c0-19.93,5.26-41.61,7.23-62.63c3.72-2.41,10.51-5.26,14.02-5.26c2.63,0,3.94,1.75,3.94,4.82
			c0,4.82-3.72,18.4-5.91,33.07c-1.31,8.54-2.41,19.27-2.41,27.16h0.66c1.53-8.1,3.94-18.83,7.88-28.47
			c8.1-20.37,19.71-35.48,34.38-37.45c8.1,1.75,15.11,6.13,19.71,12.48c-3.07,14.89-8.32,31.54-8.32,49.05
			c0,14.89,3.72,25.18,10.51,25.18c7.88,0,18.61-14.89,26.72-60.66l5.26,0.66c-9.64,55.41-23.43,68.55-37.01,68.55
			c-11.83,0-22.56-10.07-22.56-33.73c0-18.18,5.91-36.57,5.91-43.58c0-3.94-1.75-6.57-5.69-6.57c-10.07,0-20.15,19.27-24.75,31.75
			c-5.91,15.77-8.76,33.29-9.64,48.18c-4.38,2.41-8.76,3.72-10.95,3.72C218.84,220.84,217.53,204.85,217.53,194.56z"/>
		<path d="M321.33,188.87c0-15.77,5.04-37.01,7.23-56.94c3.72-2.41,10.29-5.26,13.8-5.26c2.63,0,3.94,1.53,3.94,4.6
			s-1.31,10.51-3.07,19.05c-2.41,12.04-5.04,28.03-5.04,39.42c0,12.92,3.29,22.99,10.51,22.99c6.79,0,14.67-8.98,21.46-31.97
			l5.04,1.53c-9.2,31.32-20.8,38.98-31.54,38.98C331.4,221.28,321.33,211.42,321.33,188.87z M335.13,94.48
			c0-6.57,5.04-11.61,11.39-11.61s11.39,5.04,11.39,11.61c0,6.13-5.04,11.39-11.39,11.39S335.13,100.61,335.13,94.48z"/>
		<path d="M409.15,196.09c3.07,6.35,8.1,11.61,18.4,11.61c14.45,0,26.72-10.51,37.67-33.72c14.89-31.75,22.34-76.43,22.34-112.78
			c5.91-5.91,12.04-9.2,15.33-9.2c2.63,0,3.5,1.75,4.16,4.82c5.26,22.12,10.07,44.67,18.18,74.24
			c5.48,19.93,13.36,46.21,19.49,62.41h0.44c0.22-25.84,6.13-70.08,15.11-100.3c8.54-28.69,21.68-52.34,44.24-52.34
			c14.02,0,20.15,9.42,20.15,20.37l-3.5,1.75c-2.19-5.04-6.79-9.42-15.11-9.42c-18.39,0-29.78,21.02-37.67,44.67
			c-8.54,25.84-16.21,67.01-16.21,98.77c0,5.47,0.22,11.39,1.09,16.64c-4.82,4.16-11.83,8.1-15.33,8.1c-2.19,0-3.07-1.31-3.94-3.5
			c-3.07-6.35-13.14-37.01-22.56-69.2c-10.07-33.94-14.45-53-17.08-64.38h-0.44c-1.75,30-7.88,65.04-17.74,90.66
			c-9.85,25.84-24.96,46.87-45.55,46.87c-16.64,0-23.87-13.36-24.96-24.53L409.15,196.09z"/>
		<path d="M576.02,186.68c0-17.3,7.01-33.29,16.21-43.58c8.98-10.29,21.68-16.64,35.92-16.64c8.98,0,17.08,2.41,25.18,7.01
			c-2.85,15.11-6.35,37.23-6.35,53c0,14.67,3.07,26.28,10.07,26.28c8.1,0,18.61-15.99,26.5-60.88l5.26,0.66
			c-9.42,54.53-22.78,68.98-36.13,68.98c-15.11,0-22.56-18.4-22.12-37.01h-0.44c-7.88,24.96-17.96,36.79-30.22,36.79
			C587.19,221.28,576.02,208.58,576.02,186.68z M623.76,185.36c4.82-14.02,8.76-31.32,11.61-45.11c-4.38-3.07-9.85-4.6-15.11-4.6
			c-6.35,0-12.48,2.19-17.3,6.79c-5.69,9.64-9.85,25.62-9.85,40.73c0,15.77,4.6,28.69,12.04,28.69
			C611.06,211.86,617.41,203.98,623.76,185.36z"/>
		<path d="M686.18,134.12l-11.39,0.66c-0.66-1.09-0.88-2.63-0.88-3.94c0-1.1,0.22-2.41,0.44-3.07l12.92-0.66
			c2.63-15.77,4.16-26.5,5.91-36.35c3.94-2.63,10.95-5.48,14.45-5.48c2.63,0,3.72,1.31,3.72,3.72c0,4.38-3.94,21.68-6.79,37.23
			l26.94-1.97c0.44,0.66,0.88,2.19,0.88,3.5c0,1.31-0.44,2.85-1.31,4.38l-27.81,1.09c-2.85,16.86-4.82,33.07-4.82,46.21
			c0,23.43,6.13,33.51,14.02,33.51c9.85,0,23.87-15.99,31.54-61.1l5.26,0.66c-10.29,61.32-30.44,68.76-41.61,68.76
			c-11.83,0-26.94-8.54-26.94-40.29C680.7,168.28,683.11,151.42,686.18,134.12z"/>
		<path d="M743.99,143.1c0-5.04-0.44-8.32-1.09-10.51c3.07-2.41,8.98-5.91,12.92-5.91c4.16,0,6.35,4.38,6.35,12.04
			c0,14.02-7.01,35.26-7.01,52.56c0,13.14,4.16,20.59,10.51,20.59c8.76,0,17.08-13.8,22.99-34.38c4.16-14.23,7.45-32.85,8.76-45.77
			c3.72-2.19,10.29-5.04,13.8-5.04c2.63,0,3.94,1.75,3.94,4.38c0,3.72-2.41,16.42-4.16,27.16c-1.31,7.45-3.29,20.58-3.29,30.88
			c0,12.92,3.5,23.43,10.29,23.43c8.32,0,18.61-15.77,26.72-60.66l5.26,0.66c-9.64,54.97-23.21,68.55-37.01,68.55
			c-15.99,0-21.24-18.18-20.59-35.7h-0.44c-6.79,22.56-18.62,35.92-32.19,35.92c-14.02,0-21.68-13.8-21.68-28.69
			C738.08,179.45,743.99,162.15,743.99,143.1z"/>
		<path d="M838.6,205.51c0-17.74,6.79-48.84,6.79-73.8c3.72-2.19,10.29-5.04,13.58-5.04c3.72,0,4.38,3.5,4.38,7.01
			c0,9.85-5.26,26.94-7.01,45.55h0.66c6.35-26.94,16.86-53,33.94-53c7.88,0,13.14,5.69,13.14,12.48s-5.26,10.51-11.39,12.26
			c-1.09-5.48-3.94-8.32-7.88-8.32c-6.79,0-13.58,8.32-19.49,25.4c-5.04,14.45-8.54,31.97-9.86,49.93
			c-3.72,1.75-7.66,3.29-10.07,3.29C840.57,221.28,838.6,215.15,838.6,205.51z"/>
		<path d="M900.57,186.68c0-17.3,7.01-33.29,16.21-43.58c8.98-10.29,21.68-16.64,35.92-16.64c8.98,0,17.08,2.41,25.18,7.01
			c-2.85,15.11-6.35,37.23-6.35,53c0,14.67,3.07,26.28,10.07,26.28c8.1,0,18.61-15.99,26.5-60.88l5.26,0.66
			c-9.42,54.53-22.78,68.98-36.13,68.98c-15.11,0-22.56-18.4-22.12-37.01h-0.44c-7.88,24.96-17.96,36.79-30.22,36.79
			C911.74,221.28,900.57,208.58,900.57,186.68z M948.31,185.36c4.82-14.02,8.76-31.32,11.61-45.11c-4.38-3.07-9.85-4.6-15.11-4.6
			c-6.35,0-12.48,2.19-17.3,6.79c-5.69,9.64-9.85,25.62-9.85,40.73c0,15.77,4.6,28.69,12.04,28.69
			C935.61,211.86,941.96,203.98,948.31,185.36z"/>
		<path d="M1004.16,179.45c0-20.59,5.91-53.22,13.36-80.15c1.75-6.35,7.67-26.94,13.58-40.08c5.47-4.38,13.36-8.54,16.64-8.54
			c0.88,0,1.53,0.22,2.63,0.88c8.54,5.69,12.7,22.12,12.7,35.92c0,25.4-15.11,58.03-40.29,65.92c-0.88,8.98-1.53,17.74-1.53,25.18
			c0,24.53,7.01,34.38,14.67,34.38c9.2,0,22.34-14.02,30.66-61.1l5.26,0.66c-7.23,42.49-21.24,68.76-41.17,68.76
			C1019.27,221.28,1004.16,212.3,1004.16,179.45z M1051.9,94.48c0-10.73-2.41-22.56-8.98-30.22c-4.6,13.14-7.88,25.4-9.86,33.51
			c-3.07,12.48-7.01,31.75-9.42,49.05C1041.82,140.25,1051.9,116.6,1051.9,94.48z"/>
		<path d="M1074.02,198.28c0,9.42,4.38,15.55,13.58,15.55c8.54,0,15.55-5.04,15.55-12.7c0-7.01-5.69-12.26-17.08-21.02
			c-12.26-9.64-20.58-15.55-20.58-26.28c0-17.74,21.68-27.81,37.01-27.81c12.48,0,21.46,6.79,21.46,16.64
			c0,7.67-5.26,12.26-13.14,12.48c0.22-1.31,0.22-2.19,0.22-3.28c0-10.51-5.69-17.96-15.99-17.96c-8.76,0-15.99,5.26-15.99,12.48
			c0,6.35,5.69,11.61,19.05,22.12c11.17,8.76,19.27,14.23,19.27,24.53c0,16.42-19.71,28.25-35.26,28.25
			c-8.98,0-18.62-3.94-18.62-12.92C1063.5,203.1,1066.57,198.5,1074.02,198.28z"/>
	</g>
	<g id="layer1" transform="translate(-627.42315,-376.52517)">
		<g id="g132" transform="matrix(1.2500001,0,0,1.2500001,626.95511,376.52517)">
			<path id="path134" fill="#7FFF00" d="M276.46,87.12c-5.24-0.37-7.98-2.26-9.38-4.36c0.27-5.1,1.05-11.45,3.25-17.22
				c1.26-3.3,3.04-6.29,5.23-8.49c2.4-2.62,4.61-4.63,6.84-6.3c4.4-3.26,8.26-4.68,9.48-5.18c1.24-0.48,3.45-1.37,6.13-2.37
				c2.67-0.92,5.91-2.24,8.67-3.86c5.67-3.1,10.36-6.59,10.36-6.6c0.01,0-5.01,2.78-10.85,5.09c-2.94,1.25-5.95,2.08-8.76,2.73
				c-2.76,0.71-5.1,1.43-6.38,1.93c-2.4,1-16.8,5.61-24.15,21.05c-1.66,3.94-2.71,8.02-3.38,11.85c-1.66-0.94-3.73-2.75-4.29-6.11
				c-0.98-5.85-0.44-23.42,15.48-33.18c15.92-9.76,33.7-7.81,42.2-10.67c8.51-2.86,11.89-9.37,11.89-9.37S321.72,82.31,276.46,87.12
				z"/>
		</g>
	</g>
</g>
</svg>
